<?xml version="1.0" ?><!DOCTYPE svg  PUBLIC '-//W3C//DTD SVG 1.1//EN'  'http://www.w3.org/Graphics/SVG/1.1/DTD/svg11.dtd'><svg enable-background="new 0 0 32 32" height="32px" id="Слой_1" version="1.1" viewBox="0 0 32 32" width="32px" xml:space="preserve" xmlns="http://www.w3.org/2000/svg" xmlns:xlink="http://www.w3.org/1999/xlink"><g id="Close_Square"><path d="M30,0H2C0.895,0,0,0.895,0,2v28c0,1.105,0.895,2,2,2h28c1.104,0,2-0.895,2-2V2C32,0.895,31.104,0,30,0z    M30,30H2V2h28V30z" fill="#121313"/><path d="M9.271,22.707c0.394,0.39,1.034,0.39,1.429,0l5.324-5.28l5.276,5.276c0.394,0.395,1.034,0.395,1.428,0   c0.394-0.395,0.394-1.037,0-1.432l-5.268-5.269l5.238-5.195c0.394-0.391,0.394-1.024,0-1.414c-0.394-0.391-1.034-0.391-1.428,0   l-5.231,5.188l-5.309-5.31c-0.394-0.395-1.034-0.395-1.428,0c-0.394,0.396-0.394,1.037,0,1.432l5.301,5.302l-5.331,5.287   C8.877,21.683,8.877,22.317,9.271,22.707z" fill="#121313"/></g><g/><g/><g/><g/><g/><g/></svg>